Coordinates
version=1
nRows=13
nColumns=18
inDegrees=yes

Units are S.I. units (second, meters, Newtons, ...)
If the header above contains a line with 'inDegrees', this indicates whether rotational values are in degrees (yes) or radians (no).

endheader
time	ground_thorax_rot_x	ground_thorax_rot_y	ground_thorax_rot_z	ground_thorax_tx	ground_thorax_ty	ground_thorax_tz	clav_prot	clav_elev	scapula_abduction	scapula_elevation	scapula_upward_rot	scapula_winging	plane_elv	shoulder_elv	axial_rot	elbow_flexion	pro_sup
      1.70000000	    -11.65923320	    -17.25351414	    -40.49017614	      0.06320479	     -0.03430776	      0.04475995	    -24.65290867	     -5.59460612	    -23.85999797	     -3.79094858	      7.37254557	     31.78470152	    -46.56558571	     31.27136184	     21.24149035	      1.76353592	     63.92270238
      1.72000000	    -11.78379899	    -17.24754789	    -40.69263596	      0.06365915	     -0.03466981	      0.04429070	    -24.67199887	     -5.46551352	    -23.93216238	     -3.70090602	      7.38541225	     31.76209131	    -46.65813231	     31.44601433	     21.25174717	      1.70776862	     63.92270238
      1.74000000	    -11.95666839	    -17.09462396	    -40.77729892	      0.06391612	     -0.03493490	      0.04369174	    -24.68396210	     -5.35724720	    -24.02477101	     -3.60422004	      7.32210312	     31.76167857	    -46.88610586	     31.52542330	     21.24156022	      1.48982258	     63.92270238
      1.76000000	    -12.05695571	    -17.07869590	    -40.92650111	      0.06417653	     -0.03520351	      0.04324687	    -24.70098883	     -5.26901171	    -24.07796348	     -3.54418539	      7.33557566	     31.74659926	    -46.96584624	     31.66790987	     21.25074864	      1.44318875	     63.92270238
      1.78000000	    -12.31515375	    -16.85296525	    -40.94484757	      0.06448817	     -0.03507471	      0.04264143	    -24.73331948	     -5.54292364	    -24.03789982	     -3.73906626	      7.30846013	     31.81313627	    -47.84596180	     31.71251213	     21.99238445	      1.33264090	     63.92270238
      1.80000000	    -12.39255312	    -16.75816822	    -40.98977645	      0.06452754	     -0.03517066	      0.04217563	    -24.76533719	     -5.54342980	    -24.12737347	     -3.71928804	      7.23124366	     31.84194203	    -47.94741697	     31.85831450	     22.00701076	      1.29991322	     63.92270238
      1.82000000	    -12.48985027	    -16.66396391	    -41.04845018	      0.06443002	     -0.03524346	      0.04175346	    -24.76894508	     -5.58821277	    -24.14771239	     -3.73491037	      7.16958465	     31.86738580	    -48.06277320	     31.93813178	     22.02662253	      1.27329109	     63.92270238
      1.84000000	    -12.52634219	    -16.58065500	    -41.03126102	      0.06423956	     -0.03519460	      0.04138405	    -24.80361626	     -5.63565902	    -24.20627597	     -3.75913225	      7.12561629	     31.89704986	    -48.14237034	     32.00562143	     22.11852047	      1.25586748	     63.92270238
      1.86000000	    -12.53224166	    -16.51142744	    -40.98498043	      0.06391281	     -0.03512735	      0.04103120	    -24.80407281	     -5.67175297	    -24.22612212	     -3.76752682	      7.06156976	     31.92075308	    -48.14188260	     32.06825266	     22.12380684	      1.25087213	     63.92270238
      1.88000000	    -12.48419093	    -16.42717232	    -40.92706102	      0.06349232	     -0.03503826	      0.04070184	    -24.79788774	     -5.73068114	    -24.25780201	     -3.77536321	      6.93754174	     31.96217827	    -48.28737416	     32.28011218	     21.46111267	      1.93479850	     63.92270238
      1.90000000	    -12.41881582	    -16.33487902	    -40.78478896	      0.06287712	     -0.03469992	      0.04031379	    -24.79012683	     -5.83597619	    -24.20173077	     -3.85450420	      6.94513500	     31.97872049	    -48.19239832	     32.18833626	     21.49796431	      1.37239208	     63.92270238
      1.92000000	    -12.35976774	    -16.29354153	    -40.69922004	      0.06223436	     -0.03454076	      0.04024780	    -24.84840692	     -5.92246933	    -24.28902318	     -3.90478446	      6.88738283	     32.02625617	    -47.88742666	     32.05343807	     22.05948278	      1.31678481	     63.92270238
      1.94000000	    -12.27772822	    -16.26128984	    -40.52480249	      0.06145440	     -0.03421327	      0.04012758	    -24.83487657	     -6.02367916	    -24.22569379	     -3.98053346	      6.89483320	     32.04068211	    -47.80733417	     31.92950448	     22.05380647	      1.35371288	     63.92270238
